<svg id="calendar" xmlns="http://www.w3.org/2000/svg" viewBox="0 0 59 64.1"><path d="M59 11.5v50.2c-1 .8-1.9 1.6-2.9 2.4H3.3c-1.6-.7-2.7-1.8-3.4-3.4V12.5c1.2-2.6 3.2-3.7 6-3.4 1 .1 2.1 0 2.9 0 .3-2.1.3-4.2 1-6 .7-2 2.5-3.1 4.7-3.1s4.4-.3 6.3 1.2c2.5 2.1 2 5 2.1 7.8h13.5c.1-1.5 0-2.9.2-4.2C37 2 39.4 0 42.2 0h2.2c3.6 0 6 2.4 6 6v3.1c1.3 0 2.4.1 3.4 0 2.2-.2 4 .6 5.2 2.4zM28.5 35.6H17.2v11.1h11.3V35.6zm13.7 0H31v11.2h11.2V35.6zM4.7 46.8h10.1V35.7H4.7v11.1zm12.5 12.6h11.2v-10H17.2v10zm13.8 0h11.2V49.3H31v10.1zM17.2 33.1h11.3v-10H17.2v10zm25-10.1H31v10.1h11.2V23zm2.5 23.8h10.1V35.7H44.7v11.1zM14.8 59.4V49.3H4.7v10.1h10.1zm0-36.4H4.7v10.1h10.1V23zm39.9 36.5V49.4h-10v10.1h10zM44.7 23v10.1h10V23h-10zM18.2 11V6.3c0-1.4-.3-1.7-1.7-1.7h-1c-1.5 0-1.9.3-1.9 1.9v7.9c0 2.6.2 2.8 2.8 2.7h.5c.9-.1 1.3-.5 1.3-1.4V11zm23-.1v4.7c0 1.3.3 1.6 1.6 1.6h1.1c1.4 0 1.8-.3 1.8-1.8V7.5c0-2.9 0-2.9-2.9-2.9-1.1 0-1.6.5-1.6 1.6.1 1.6 0 3.1 0 4.7z"/></svg>