<svg id="gift" xmlns="http://www.w3.org/2000/svg" viewBox="0 0 55 48.2"><path d="M4.6 29.9H1.7c-1.3 0-1.6-.3-1.6-1.6V17.6c0-1.2.5-1.6 1.6-1.6h12.9v-.2c-.3-.1-.7-.3-1-.4-3.1-1.6-4.7-4-4.7-7.5s1.8-6 4.9-7.3c3-1.2 6.1-1 8.5 1.4 1.6 1.6 2.9 3.6 4.4 5.4.3.3.5.7.9 1.1 1.5-2 3-3.8 4.4-5.7 2.7-3.6 7.9-3.4 10.7-1.5 3.4 2.4 4.6 7.1 2.5 10.6-1.1 1.8-2.6 3.1-5 3.9.6.1 1 .1 1.3.1h11.8c1.6 0 1.9.3 1.9 1.9v10.1c0 1.6-.3 1.9-1.9 1.9h-2.6v14.4c0 2.7-1.3 4-4 4H8.8c-2.7 0-3.9-1.3-3.9-4V31.4c-.3-.4-.3-.9-.3-1.5zm17.2-13.7v24.7c0 2 .6 2.6 2.6 2.7h6.1c2 0 2.6-.7 2.6-2.7V17.4v-1.2H21.8zm9.5-4.7c2.6 0 5.1.1 7.5 0 1.5-.1 2.6-1.6 2.7-3.1.1-1.4-.8-2.8-2.1-3.4-1.4-.6-2.9-.3-3.9 1-1.4 1.7-2.7 3.5-4.2 5.5zm-7.5 0c-1.5-1.9-2.9-3.7-4.3-5.4-1.1-1.3-2.6-1.7-4-1-1.4.6-2.2 2.2-1.9 3.6.3 1.5 1.5 2.8 3.1 2.8 2.2.1 4.5 0 7.1 0z"/></svg>