<svg id="group" xmlns="http://www.w3.org/2000/svg" viewBox="0 0 68.7 64.1"><path d="M16.6 64.1c-.4-.1-.8-.3-1.2-.4-3.4-1-5.6-3.3-6-6.8-.7-5.9 0-11.6 2.8-16.9 1.6-3.1 4-5 7.5-5.6 1.3-.2 2.5-.1 3.6.7 2.4 1.8 5 3.2 8.1 3.8 4.2.8 8 0 11.6-2.2.9-.5 1.7-1 2.5-1.6 1.1-.9 2.3-.9 3.6-.7 3.4.6 5.7 2.5 7.4 5.4 2.2 4 2.9 8.4 3.1 12.8.1 1.5.1 3-.2 4.4-.6 3.4-2.7 5.6-6 6.6-.4.1-.8.3-1.2.4-12 .1-23.8.1-35.6.1zM0 26.4c.2-1.2.4-2.5.7-3.7.3-1.1.7-2.2 1.4-3.2.8-1.3 2-1.5 3.4-.8 2.7 1.4 5.5 2.7 8.6 2.5 1.4-.1 2.8-.4 4.4-.6-.5 4 .4 7.8 2.7 11.3-1 .2-1.8.3-2.7.4-2.4.7-4.5 1.9-6.2 3.7-.3.3-.7.6-1.1.6-1.8 0-3.6.1-5.4-.1-2.7-.1-4.8-1.4-5.8-4.1v-6z"/><path d="M20.6 22.9c0-7.7 6-13.8 13.7-13.8 7.7 0 13.8 6.1 13.8 13.8 0 7.6-6.1 13.8-13.8 13.8-7.6 0-13.7-6.1-13.7-13.8zM47.5 32.1c2.7-5.2 2.9-6.3 2.7-11.5.8.2 1.5.4 2.3.5 3.2.6 6.2-.2 9-1.5.3-.1.6-.3.9-.4 2.7-1.4 4-.9 5.1 2 1.3 3.6 1.4 7.3 1.1 11-.2 2.1-2.2 3.9-4.7 4.2-2.1.3-4.3.2-6.5.2-.2 0-.6-.1-.7-.3-2.4-2.7-5.5-4.1-9.2-4.2zM13.8 0c5.1 0 9.1 4 9.1 9.2 0 5.1-4.1 9.2-9.2 9.2s-9.2-4.1-9.1-9.3c0-5.2 4-9.1 9.2-9.1zM45.8 9.1c0-5.2 4-9.1 9.2-9.1 5.1 0 9.1 4 9.1 9.1 0 5.2-4 9.2-9.2 9.2-5.1.1-9.1-4-9.1-9.2z"/></svg>