<svg id="home" xmlns="http://www.w3.org/2000/svg" viewBox="0 0 57.7 46"><path d="M33.4 46V32.4h-9V46H11c-1.9 0-2.7-.9-2.7-2.7V27.2c0-.5.2-1.1.5-1.3 6.6-5.5 13.3-11 20.1-16.6 2.1 1.7 4.1 3.3 6.1 5 4.6 3.8 9.1 7.5 13.7 11.3.4.4.8 1.1.8 1.7.1 5.3 0 10.6 0 15.8 0 2-.8 2.8-2.8 2.8-4.4.1-8.8.1-13.3.1z"/><path d="M40.3 8.2V1.9c0-1.6.2-1.8 1.8-1.8h5.8c1.3 0 1.6.3 1.6 1.6v13.1c0 .8.2 1.2.8 1.7l6.6 5.4c1.1.9 1.1 1.4.2 2.5l-1.5 1.8c-.9 1.1-1.4 1.1-2.5.2-5.2-4.3-10.4-8.7-15.6-13-2.9-2.4-5.7-4.8-8.7-7.2-1.8 1.5-3.5 2.9-5.2 4.4C17.3 15.8 11 21.1 4.7 26.3c-1.3 1.1-1.7 1-2.8-.2-.4-.5-.8-.9-1.2-1.4-1-1.3-1-1.7.3-2.8 4-3.4 8-6.7 12.1-10.1 4.2-3.5 8.4-7 12.5-10.4 2.2-1.8 4.3-1.8 6.5 0 2.6 2.2 5.3 4.4 8.2 6.8z"/></svg>