<svg id="logo" xmlns="http://www.w3.org/2000/svg" viewBox="0 0 706.3 313.1"><path d="M165.2 313.1c-.4-.2-.9-.6-1.3-.7-15.9-2.8-25.9-17-20.2-36.9 5.9-20.5 19.6-34.9 37.4-45.6 6.5-3.9 13.7-6.8 20.9-9.2 11.3-3.7 22.6-3.7 33.8 2.2 12.6-11.6 20.8-25.8 25.1-42.3 10.8-41.6-5.4-80.8-43.3-105.5C185.5 54.1 150 44.3 112 42c-1.8-.1-3.6 1.1-5.4 1.6-1.9.6-3.7 1.5-5.6 1.8-2.5.3-5 .3-7.5 0-6.6-.6-12.4-.2-15.1 7.5-.7 2-2.8 3.8-4.8 5-3.1 1.8-2.7 4.6-2 7 .3 1.1 2.8 1.7 4.4 2.1 3.7 1.1 7.5 1.6 11 3 4.2 1.7 4.6 4 2 7.8-.5 1.2-1.3 2.2-2.2 3.2-4.9 6.1-5.2 12.6-1.1 19 2.6 4.1 5.7 7.8 8.9 11.4 4.2 4.9 8.9 9.5 13 14.5 12.7 15.6 16.2 33.2 10.9 52.6-4.8 17.5-13.9 32.7-23.6 47.7-6.1 9.4-11.3 19.2-13.8 30.3-4.3 19.3 3.1 36.5 20.1 46.4 1.6.9 3.4 1.5 4.8 2.7.9.8 1.6 2.4 1.6 3.7 0 .6-1.9 1.2-2.9 1.7-.4.2-1 0-1.5 0h-85c-1.5 0-3-.1-4.3-.2-2.1-4.1.9-5.1 3.4-6.4C35 295 43.7 279.6 40.7 261c-1.2-7.4-3.7-14.9-7.2-21.7-5.6-10.9-13-21-18.6-31.9-5-9.7-9.5-19.9-12.5-30.4-6.4-21.7.6-40.2 15.5-56.4 5-5.4 10.1-10.6 14.6-16.4 7.5-9.6 7.3-15.2.1-25.1-3.8-5.2-3.1-7.9 3-9.9 3.1-1.1 6.5-1.4 9.7-2.2 1.4-.4 3.6-1.2 3.7-2.1.3-1.9.2-4.7-1-5.9-15.2-16.2-14.3-39.7 2.5-54.7 6.3-5.6 13.2-5.7 19.8-.1 6 5.2 9.5 12 11.7 19.4.8 2.8 2.1 3.7 4.9 3.6 4.2-.2 8.4-.4 12.5.1 2.9.4 5.6 2.1 8.5 3 2.1.7 4.3 1.5 6.5 1.6 33.1 2.2 64.9 9.7 94.3 25.5 26.2 14 48.3 32.6 58.5 61.6 14 39.9 7.8 76.4-21.2 108.1-2.1 2.3-2.5 3.9-1.2 6.8 4.3 9.7 2.8 19.4-1.4 28.6-12.1 26.4-32.8 42.6-60.8 49.6-1.1.3-2.2.6-3.3 1h-14.1zM317.5 54.9c-.1 1.8-.2 2.8-.2 3.8V119h5.4c23.7 0 47.3.1 71-.1 3.9 0 5.4 1 5.2 5-.3 4.7-.3 9.3 0 14 .3 4.3-1.1 5.7-5.6 5.7-23.2-.2-46.3-.1-69.5-.1h-6.2v73.8h83c9.1 0 7.6-.1 7.7 7.9 0 4.3-.1 8.7 0 13 .1 3.1-1.2 4-4.1 4-37.3-.1-74.7-.1-112 0-3.5 0-4.2-1.4-4.1-4.5.1-14.3 0-28.7 0-43 0-52.8.1-105.7-.1-158.5 0-5.1 1.4-6.4 6.4-6.4 34.5.2 69 .2 103.5 0 4.4 0 6 1.1 5.6 5.6-.4 4.6-.4 9.3 0 14 .4 4.6-1.5 5.5-5.7 5.5-24.7-.2-49.3-.1-74-.1-2 .1-3.9.1-6.3.1zM289.4 295h-8v-36.6c2.6.8 4.9 1.6 7.3 2.2.6.2 1.5-.1 2.1-.5 6.6-3.5 12.7-3.3 18.3 2.6 1.2-.9 2.3-1.9 3.5-2.6 8.2-5.3 18.6-1.3 19.8 8.3 1 8.6.2 17.5.2 26.5H325v-17.1c0-1.7.1-3.4-.1-5-.5-3.9-1.5-7.8-6.3-8.4-3.5-.4-7 4-7.1 8.8-.1 6.1 0 12.3-.1 18.5 0 1-.1 1.9-.2 3.1h-8.1v-20.5c0-6-2.5-9.9-6.1-10-3.8-.1-7.5 4.9-7.5 10.3-.1 6.7-.1 13.3-.1 20.4zm93.6 6.6c5.7 1.3 11.8 5.2 17.2 0 2.2-2.1 3-5.5 4.5-8.3l-1.2-.9c-1.6.6-3.2 1.3-4.8 1.8-13.4 3.6-23.4-7.2-20.4-22.1 2.3-11.6 12.3-16.7 23.5-12.8 2.9 1 6.6-.1 11-.3-.5 13.5-.7 26.7-1.7 39.9-.4 5.5-4.6 9.4-10.2 10.2-4.9.6-9.9.6-14.8 0-5.6-.7-5.9-2.1-3.1-7.5zm21-25.3v-2.5c-.2-5.1-3.4-9.4-7.6-9.6-4.9-.3-7.5 2.8-9.1 7-.5 1.4-.8 2.9-.9 4.3-.5 7.4 3.3 13.2 8.8 13.4 5.3.2 8.8-4.7 8.8-12.6zm79.2 18.5v-29.4c-1.6-.4-3-.6-4.8-1-.1-1.5-.2-3.1-.4-5 1.7-.3 3.1-.5 4.5-.7.2-.3.5-.6.5-.9 1.3-12.6 8.5-17.8 20.9-15.2 5.6 1.2 5.9 1.8 2.9 7.3-12.7-1.9-15.2-.5-15.1 9.1h19.5v35.8h-8.1v-29.6h-11.4v29.6h-8.5zm71-36.2v50.3h-7.9v-15.4c-1 .3-1.6.3-2.1.5-12.5 5.8-23.8-.8-24.1-14.5-.1-4.4.7-9 2.4-13.1 2.3-5.7 7.5-8.6 13.6-8.3 6 .3 11.8 2.3 18.1.5zm-8.1 18.3v-3.5c-.3-4.7-2.6-8.1-7.2-9-4.6-.9-7.5 2.1-9.2 6-.9 2.1-1.3 4.5-1.3 6.8-.2 7.2 4 12.8 9.2 12.7 5.1-.1 8.5-5.1 8.6-12.5-.1-.1-.1-.3-.1-.5zm-184.2-5.3c-1.3-7.2-5.2-9.3-12-6.7-2.1.8-4.5 3.2-5.9-1-1.2-3.9 1.9-4.2 4-4.8 3-.7 6.2-1.2 9.4-1.1 7.4.2 11.7 3.6 12.3 11 .7 8.4.1 16.9.1 26.3-2.2-.4-4.5-.9-6.9-1.3-.7-.1-1.4-.1-2.1.1-.6.1-1.2.6-1.8.9-7.9 3-15.7.4-17.7-6-2.3-7.3 2.2-14 10.9-15.9 3.1-.7 6.3-1 9.7-1.5zm-.3 5.1c-3.7 1.4-7.2 2.1-10 3.9-2.7 1.6-3.5 5-1.1 7.2 1.5 1.4 5 2.1 6.9 1.4 5-1.9 5.2-6.5 4.2-12.5zm91.5 18.2H445v-12.5c0-3.2.1-6.3-.1-9.5-.4-5.1-3.7-8.8-7.4-8.6-3.9.2-7.8 4.3-8 8.9-.2 5.3-.1 10.6-.1 16v5.6h-8.3v-36.3c3 .5 5.6.9 8.2 1.3v1.2c1.3-.7 2.6-1.4 3.9-2 9.9-4.2 19 .8 19.9 11.5.6 8.2 0 16.1 0 24.4zm111.6-35.8h7.8v16.4c0 2.3-.1 4.7.3 7 .7 3.8 2.2 7.2 6.9 7.2 3.6 0 7.3-4 7.4-8.2.2-6.5.1-13 .1-19.5 0-.8.1-1.6.2-2.7h7.8v36.1c-2.7-.4-5.4-.7-8.1-1.1.1-.3.1-.6.2-1-2.1.8-4.2 1.9-6.5 2.5-8.4 2.1-15.1-1.8-15.9-10.3-.9-8.6-.2-17.3-.2-26.4zm68.2 29.4c.5 1.6 1 3.3 1.5 5.3-7 2.6-13.8 3.5-20.7.8-8.5-3.4-12.1-15.1-8.2-25.9 3.3-8.8 12-12.9 21-9.9 6.1 2 11.2 11.3 9.4 17.4-.3 1-2.4 2-3.7 2.1-6.6.2-13.2.1-19.8.1.7 10.4 5.2 12.6 20.5 10.1zm-5-15.8c-.7-5.7-3.5-9-7.1-9.1-3.5 0-6.7 3.6-7.9 9.1h15zm-164.5-13.6h7.6v35.7h-7.6v-35.7zm26-105.2c-1.8-1.4-3.7-2.9-5.3-4.1-1.8 1.3-3.8 2.6-5.7 3.9-.4-.3-.9-.7-1.3-1 3.7-4.4 6.4-8.9-.4-13.5-1.6 4-3.1 8.1-4.8 12.1-2.9 6.9-5 8.6-9 6.7 2.3-2.7 6.3-4.7 3.4-9.4-1.9-3.1-2.7-6.7-4.2-10.5 6.8-.6 4.6 6 7.8 8.4 1.1-2.8 2.1-5.6 3.2-8.3 4.3-.4 8.6-1.4 10.5 3.6 2.1-1.6 4-3 5.9-4.4l1.1 1.2c-1.3 2.2-2.7 4.4-4.2 6.9 1.3 2.2 2.7 4.6 4.1 7-.3.5-.7 1-1.1 1.4zm-24.1-71.4c.1 6.8-3.8 10.9-10.1 10.9-6.2 0-9.8-3.9-9.8-10.6 0-6.4 4-10.8 9.8-10.9 6 0 10 4.2 10.1 10.6zm-16 .3c0 4.7 2.8 8.3 6.2 8.2 3.2-.1 5.8-3.7 5.8-8.1 0-4.3-2.6-8-5.8-8.3-3.3-.2-6.2 3.5-6.2 8.2zM619 146.7c5.1-8.4 5.1-8.4 8.2-8.3.3 4.9.6 9.8 1 14.8-3.1-.6-3.1-.6-4.3-6.6-1.5 2.2-3.1 4.5-4.7 6.8-1.5-2.2-3-4.3-4.5-6.5-1.4 1.7 1.2 6.1-4 6.7.3-4.7.3-8.8.8-12.9.1-.9 1.4-2.4 2.2-2.4.9 0 2.3 1 2.8 1.9.9 1.9 1.6 4.1 2.5 6.5zM558.3 93c.3-4.9.7-9.8 1-14.7 4-.2 4-.2 7.7 8.8 1.1-2.6 1.7-4.7 2.8-6.5.6-1.1 2-1.8 3-2.6.8 1 2.2 2 2.3 3 .4 3.9.5 7.9.7 12.5-5.4-.7-2.6-5.1-4-7.1-.3.1-.7.2-.8.4-1.3 2.2-2.6 4.3-3.9 6.5-1.5-2.1-3.1-4.2-4.4-6.1-.7 1.8-1.6 4.1-2.5 6.4-.8-.1-1.3-.4-1.9-.6zm-99.6 45.4c.6 5.1 1.3 9.9 1.6 14.8.1 1.6-.7 3.2-1.1 4.9-1.1-1.3-2.1-2.5-3.7-4.4h-6.8c-.2 1-.1 2-.5 2.8-.4.7-1.2 1.1-1.9 1.6-.4-.6-1.2-1.1-1.3-1.7-.1-1.5-.3-3.1.1-4.4 1.2-4.3 2.7-8.6 4.3-13.5 2.3-.1 5.7-.1 9.3-.1zm-3.3 12.3c0-2.7.2-5.1-.1-7.5-.1-.9-1.3-1.8-2-2.6-.6.9-1.6 1.8-1.8 2.8-.5 2.3-.6 4.8-1 7.3h4.9zm55 3.9v-17.2c4 .9 8.8.6 10.7 2.8 2 2.3 2.9 8.4 1.3 10.2-2.4 2.6-7.4 2.8-12 4.2zm2.7-4.7c.6.6 1.2 1.3 1.8 1.9 1.4-1 2.8-1.9 4.2-2.9-1.1-.8-2.5-2.3-3.3-2.1-1.1.2-1.8 2-2.7 3.1zm-11.4-70.4c2.2-.5 4.6-1.7 6.5-1.2 2 .6 4.3 2.8 4.8 4.7.8 3.1.2 6.6.2 10-2.4.2-4.7.3-6.9.4-2.7.1-5.7-.3-5.4-3.5.2-1.8 2.5-3.7 4.2-5.1 1-.8 2.8-.8 4.4-1.2-1.2-4.8-4.6-2.3-7.3-1.9-.2-.8-.4-1.5-.5-2.2zm84.8 2.4c-2.3-.4-4.6-.8-7.4-1.2.1-3.5 3.4-2.7 5.5-2.7 5.3.2 6.4 3.4 5.4 15.5-3.9-2.5-10.3 3.4-12.1-3.6-1.4-5.6 4.7-5.1 8.2-6.3-.1.1.4-1.7.4-1.7zm30.4 11.8c-4.2-2.4-10.7 3.2-12.1-3.9-1.1-5.6 4.9-4.9 8.6-6.3-1.1-4.9-4.6-2-7.9-2.1 1.2-3.8 3.9-3.6 6.2-3.4 5.2.5 6.4 3.9 5.2 15.7zm27.3 52.5c-3.4.2-6.6.4-10 .6 1.1 6.1 6.1 3.3 9.1 4.9-3.5 2.3-7.2 2.7-10.3.4-3.4-2.5-3.5-6.3-1.9-9.9 1.6-3.6 4.7-4.7 8.3-3.9 3.8.8 4.8 3.8 4.8 7.9zm19.4.2c4.3-2.3 3.3-9.2 10-8 0 4.2.1 8.2-.1 12.1 0 1-1.2 1.9-1.8 2.8-.5-1-1.3-2-1.5-3.1-.3-1.6-.1-3.2-.1-5-4.1 2-3.1 9.5-10 7.8 0-4.3-.1-8.4.1-12.5 0-.8 1.1-1.6 1.6-2.4.6.8 1.5 1.6 1.7 2.4.2 1.7.1 3.6.1 5.9zm-127.1 0c4.2-2.3 3.4-9.1 10-8.2 0 4.3.1 8.4-.1 12.6 0 .9-1.1 1.7-1.6 2.5-.6-.8-1.5-1.6-1.6-2.4-.3-1.8-.1-3.6-.1-5.6-4.1 1.9-3.1 9.4-10 7.8 0-4.3-.1-8.6.1-12.9 0-.7 1-1.4 1.5-2.1.6.8 1.7 1.4 1.8 2.3.2 1.7 0 3.5 0 6zM526.8 85c-4.3 2.3-3.2 9.3-10 8.1 0-4.3-.1-8.5.1-12.6 0-.8 1.1-1.6 1.7-2.4.6.8 1.5 1.6 1.6 2.4.3 1.8.1 3.6.1 5.6 4.2-1.8 3.2-9.3 10-7.8 0 4.2.1 8.4-.1 12.5 0 .9-1 1.7-1.6 2.5-.6-.8-1.6-1.5-1.7-2.4-.3-1.8-.1-3.6-.1-5.9zm169.5 62.1c6.2-9 6.2-9 10-8.8 0 4.3.1 8.5-.1 12.8 0 .7-.9 1.4-1.4 2.2-.7-.7-1.8-1.4-1.9-2.2-.3-1.9-.1-3.8-1.2-6-1.3 2.2-2.4 4.5-4 6.6-.7.9-2.2 1.7-3.2 1.5-.7-.1-1.6-1.8-1.7-2.8-.2-3.3-.2-6.6 0-9.9 0-.8 1.1-1.6 1.7-2.4.5.8 1.4 1.6 1.6 2.5.3 1.7.2 3.6.2 6.5zm-52.2-54v-3.4c0-.8-.1-1.7-.2-2.7-1-.2-1.9-.4-2.8-.5-.8 0-1.6.2-2.1.2-.3.4-.5.6-.5.7-.6 2-1.6 5.7-1.8 5.6-4.2-.7-1.7-4.1-2.2-6.4-.4-1.9-.3-4 0-5.9.2-1.2 1.5-2.1 2.3-3.1.4.3.9.5 1.3.8.1 1.6.2 3.2.3 5.2h5.5c.1-1.7.2-3.3.3-4.9l1.1-1c.9 1.1 2.4 2.1 2.5 3.2 1.2 9.2.4 11.7-3.7 12.2zm-171.8-9.4h4c1.1-2.3 2-4.2 2.9-6.1l2 .6c0 4.2.1 8.4-.1 12.7 0 .8-1 1.7-1.6 2.5-.7-.8-2.1-1.7-2.1-2.6.1-3.9-1.3-5.2-4.5-4-2.4 1.9 1.2 7.1-4.7 6.3V78.8c3.5-.6 3.5-.6 4.1 4.9zm69.8.2c1.4-2.6 2.4-4.5 3.3-6.3.5.2 1 .4 1.5.7v14.8c-5.7.8-2.4-4.2-4.7-6.3-.7 0-2.1-.1-3-.2-2.6 1.8.8 7.2-4.9 6.7V78.6c3.4-.3 3.4-.3 4 4.7.3.2.5.4.8.5 1.2.1 2.4.1 3 .1zm44 69.5c-4.8 0-7.8-3-7.7-7.8.1-4.6 3.5-7.7 8.1-7.6 4.4.1 7.4 3.2 7.4 7.7.1 4.8-3 7.8-7.8 7.7zm5.4-7.3c-2.1-2.3-3.6-3.9-5-5.4-1.4 1.5-4 3.1-3.9 4.6 0 1.9 2.2 3.7 3.5 5.5 1.5-1.3 3.1-2.7 5.4-4.7zm-23.4-7.4c.1 1.4.3 2.8.4 4.3 2.6-2 5-3.8 7.5-5.7.4.5.8.9 1.1 1.4-1.6 2-3.2 4.1-4.6 5.8 1.7 2.8 3.3 5.4 5 8.2-5.8 2.6-4.5-5.4-9-4.8-.2 1.5-.3 3.2-.5 4.9-.5.3-.9.6-1.4.8-.8-1.3-2.3-2.7-2.1-3.9.7-3.9-2.4-9 1.8-11.9.7.4 1.2.6 1.8.9zm-68.9 14.7c-4.9 0-7.8-2.9-7.8-7.7 0-4.6 3.3-7.8 8-7.8 4.4 0 7.4 3.1 7.5 7.6.1 4.8-2.9 7.9-7.7 7.9zm5.6-7.3c-2.5-2.3-4-3.9-5.6-5.4-1.3 1.5-3.7 3.1-3.6 4.4.2 2 2.2 3.8 3.3 5.7 1.6-1.2 3.2-2.5 5.9-4.7zm177.2 1.6c-2.2 1.6.7 6.9-4.7 5.3v-14.4c3.4-.2 3.4-.2 4.3 4.9 1.4-1.6 2.3-3.3 3.7-4.3 1.2-.8 2.8-1 5.6-1.9-2.6 3.3-4.2 5.3-5.6 7.1 1.8 2.8 3.4 5.4 5 8-.5.5-1 .9-1.5 1.4-2.3-2-4.5-4.1-6.8-6.1zM484.6 94.4c1.2-6.4 2.1-10.9 3-16h9.6c2.2 8.1 1 14.4-3.1 14.6 0-3.3.2-6.6-.1-9.9-.1-.9-1.3-1.7-2-2.5-.5.8-1.4 1.6-1.6 2.5-.4 2.3-.1 4.8-1 6.8-.7 1.6-2.8 2.7-4.8 4.5zm136.2-15.5c2.6-.1 5.4-.7 7.8-.1 2.7.7 3.3 3 1.7 5.6-.2.3-.1 1.1.1 1.3 2.2 2.4 2.7 4.9-.4 6.7-3.2 1.8-6.6 1.7-9.7 0 0-.5.1-1.1.1-1.6 1 0 2 .2 2.9 0 1.5-.3 3-.8 4.4-1.3-1-1-2.1-2-3.2-2.9-.5-.4-1.2-.4-2.5-.9 2.1-1.1 3.5-1.9 5-2.7v-1.4l-6.3-.9c.2-.7.2-1.3.1-1.8zM608 141.1c-3.8-.7-7.3-.7-7.9 4.2-.5 3.9 1.6 5.4 7.9 5.9 0 .5.1.9.1 1.4-2.3.2-4.6.9-6.8.5-3.7-.6-5.1-3.6-5.2-6.9-.1-3.8 1.7-6.9 5.7-7.7 2.1-.4 4.3.3 6.5.5 0 .7-.2 1.4-.3 2.1zm50.1-2.4c-5.6 1.8-4 6.3-4.1 10.1-.1 2.1.9 5.1-3.7 4.3v-11.8c-1.7-.6-3-1.1-4.3-1.6 0-.3 0-.7.1-1h12zM468.8 244.3c1.2 1.8 3.1 3.6 3.3 5.5.4 3.1-2.2 4-5 4-3.1 0-5-1.8-4.4-4.6.4-1.9 2.6-3.4 4-5.1.6.1 1.3.1 2.1.2zm125.7-166h9.5c.1.4.2.8.3 1.3-1.8.4-3.6.9-5.5 1.3-2.9 3.6 2.1 9.6-4.3 13.1V78.3zm-74.9-4.5h9.5c-2.2 1.4-3.7 3.1-5.3 3.1-1.7 0-3.3-1.5-5-2.3l.8-.8z"/></svg>