<svg id="mail" xmlns="http://www.w3.org/2000/svg" viewBox="0 0 64.1 50.4"><path d="M64.1 16.3v29.8c-.1.1-.2.2-.2.3-1.1 2.8-2.9 4-5.8 4H5.9C2.5 50.4 0 48 0 44.6V17.5c0-.3 0-.7.1-1.1 1 .9 1.9 1.7 2.8 2.4 7.2 5.1 14.4 10.2 21.8 15.1 1.7 1.2 3.8 2 5.9 2.5 3.3.8 6.1-.7 8.8-2.4 2.5-1.6 4.8-3.3 7.1-5 5.8-4.4 12.2-7.8 17.6-12.7z"/><path d="M64.1 4.3v3.1c-1.2 4-3.9 6.7-7.3 9-4.7 3.2-9.4 6.5-14.1 9.8-2.4 1.7-4.8 3.3-7.3 4.9-2.2 1.4-4.5 1.4-6.8 0-1-.6-1.9-1.1-2.8-1.8-6.6-4.6-13.2-9.1-19.6-13.8-1.9-1.4-3.4-3.3-4.9-5.1C.2 9.1-.1 7.5 0 5.7.2 2.3 2.4 0 5.7 0h52.7c1.8 0 3.3.7 4.5 2.2.5.6.8 1.4 1.2 2.1z"/></svg>