<svg id="paper-clip" xmlns="http://www.w3.org/2000/svg" viewBox="0 0 49.8 54.8"><path d="M49.8 47.5c-.8 1.4-1.3 2.9-2.4 4.1-3.6 4.1-10.1 4.3-14.6.6-.4-.3-.8-.7-1.2-1C22.5 41.9 13.2 32.6 4 23.3-3.3 16-.1 3.3 9.8.6 14.7-.7 19.3.2 23 3.8c7.3 7.2 14.4 14.4 21.6 21.6.7.7.8 1.4.1 2.2l-.6.6c-1.4 1.5-1.9 1.5-3.3 0C34 21.4 27.2 14.5 20.3 7.6c-2.6-2.6-5.6-3.7-9.2-2.7-6.6 1.9-8.6 10.3-3.6 15.3 5 5.1 10.1 10.1 15.2 15.2 4.1 4.1 8.1 8.2 12.2 12.2 1 .9 2.2 1.7 3.5 2.2 2 .7 4 .4 5.6-1.2 1.6-1.6 1.9-3.5 1.2-5.5-.4-1.2-1.1-2.4-2-3.4-6.8-6.9-13.6-13.7-20.4-20.5-.2-.2-.5-.4-.7-.6-1.1-.8-2.6-.7-3.4.2-.9.9-.9 2.4.1 3.5.6.7 1.3 1.3 1.9 2L33 36.6c1.3 1.3 1.3 1.7 0 3-.3.3-.6.6-.9.8-.7.6-1.3.6-2-.1-4.8-4.9-9.7-9.7-14.5-14.5-2.2-2.2-2.8-4.9-1.7-7.7 1-2.7 3-4.2 5.8-4.5 2.2-.3 4.2.4 5.8 2 7.2 7.1 14.4 14.3 21.4 21.5 1.4 1.4 2 3.5 3 5.2-.1 1.6-.1 3.4-.1 5.2z"/></svg>