<svg id="phone" xmlns="http://www.w3.org/2000/svg" viewBox="0 0 50.2 64.1"><path d="M50.2 47.6c-.7 3.2-3.1 4.9-5.8 6.2-3.1 1.5-6.2 1.9-9.6 1-8.9-2.3-16.2-7.1-22.5-13.7C6.6 35.2 2.7 28.4.7 20.5-.6 15.3 1 10.8 4.5 7c1.8-1.9 4.3-2 6.8-2.1.3 0 .8.4 1 .7.5.8.9 1.6 1.4 2.4 1.4 2.4 2.9 4.9 4.3 7.3.8 1.4.8 2.1-.3 3.3-.7.7-1.5 1.4-2.2 2-.6.5-1.2.9-1.8 1.5-1.9 1.7-1.9 2.2-.7 4.5 3.7 6.8 8.9 12.1 15.8 15.8 2.2 1.2 2.8 1.2 4.5-.7 1-1.1 1.9-2.4 2.9-3.5 1.6-1.7 2.3-1.7 4.3-.5 2.5 1.5 5.1 3 7.7 4.5.7.4 1.4.8 2 1.3v4.1z"/></svg>