<svg id="search" xmlns="http://www.w3.org/2000/svg" viewBox="0 0 60 60"><path d="M41.4 25.4c0-4.4-1.6-8.2-4.7-11.3-3.1-3.1-6.9-4.7-11.3-4.7s-8.2 1.6-11.3 4.7S9.4 21 9.4 25.4s1.6 8.2 4.7 11.3c3.1 3.1 6.9 4.7 11.3 4.7s8.2-1.6 11.3-4.7 4.7-6.9 4.7-11.3zm18.3 29.7c0 1.2-.5 2.3-1.4 3.2-.9.9-2 1.4-3.2 1.4-1.3 0-2.4-.5-3.2-1.4L39.7 46.1c-4.3 3-9 4.4-14.3 4.4-3.4 0-6.7-.7-9.8-2s-5.8-3.1-8-5.4c-2.3-2.3-4-4.9-5.4-8s-2-6.4-2-9.8.7-6.7 2-9.8 3.1-5.8 5.4-8 4.9-4 8-5.4 6.4-2 9.8-2 6.7.7 9.8 2c3.1 1.3 5.8 3.1 8 5.4 2.2 2.2 4 4.9 5.4 8 1.3 3.1 2 6.4 2 9.8 0 5.2-1.5 10-4.4 14.3l12.3 12.3c.8.9 1.2 2 1.2 3.2z"/></svg>