<svg id="cart" xmlns="http://www.w3.org/2000/svg" viewBox="0 0 59 50.4"><path d="M0 3.1V1.5C.8 1 1.5.1 2.3.1 5.4-.1 8.4 0 11.4 0c1 0 1.7.5 2.1 1.5.2.6.5 1.2.5 1.8.1 1 .5 1.3 1.5 1.3h40.4c1 0 2 .4 3.1.7v21.4c-.6.3-1.2.8-1.9.9l-33.6 3.9c-1.1.1-2.2.3-3.1.4-.1 1.7-.2 3.2-.3 4.7h31.2c.5 0 1 0 1.4.1 1.2.2 2 1.1 2 2.3 0 1.1-.8 2.1-1.9 2.3-.3.1-.7.1-1.1.1 2.6 1.6 3.4 3.3 2.9 5.5-.5 1.9-2.1 3.4-3.9 3.5-2.1.2-4.2-.9-4.7-2.9-.3-1.1-.3-2.5.1-3.6.4-1 1.5-1.8 2.2-2.6H19.8c2.6 1.7 3.4 3.5 2.8 5.7-.5 1.8-2.3 3.3-4.2 3.3-2.1.1-4-1.1-4.5-3.1-.3-1.1-.2-2.4.2-3.5.4-1 1.5-1.8 2.2-2.6-2.5-.3-3.3-1.6-2.2-4.1.4-.8.9-1.5 1.2-2.4.2-.6.4-1.2.3-1.8-1.3-6.2-2.6-12.4-4-18.6-.6-2.9-1.3-6.2-2.1-9.6-2.2 0-4.4-.1-6.5 0-1.3.1-2.3-.3-3-1.5z"/></svg>