<svg id="signin" xmlns="http://www.w3.org/2000/svg" viewBox="0 0 55 45.8"><path d="M18.3 32.1H2.8c-2 0-2.8-.8-2.8-2.7v-13c0-1.9.8-2.7 2.7-2.7h15.6V8.9 3.4c0-1 .5-1.8 1.4-2 .7-.2 1.6.1 2.4.3.3.1.5.5.8.7 6 6.1 12.1 12.1 18.2 18.2 1.8 1.8 1.8 2.8 0 4.6L23 43.3l-.5.5c-.8.7-1.6 1-2.6.6s-1.5-1.3-1.5-2.4c-.1-3.1-.1-6.4-.1-9.9z"/><path d="M55 23v12.4c0 6-4.5 10.5-10.5 10.5H33.9c-1.5 0-1.9-.3-1.9-1.9v-.6c0-1.8.3-2.1 2.1-2.1h10c4 0 6.4-2.4 6.4-6.4V11c0-3.9-2.4-6.3-6.4-6.3H33.8C32.5 4.6 32 4.2 32 3V1.9c0-1.6.3-1.9 1.9-1.9h10.6c6 0 10.4 4.5 10.5 10.5V23z"/></svg>