<svg id="star" xmlns="http://www.w3.org/2000/svg" viewBox="0 0 59 56.7"><path d="M0 22.5v-1.4c.8-.3 1.5-.8 2.3-.9 5.6-.9 11.1-1.6 16.7-2.5.5-.1 1.1-.5 1.3-.9 1.1-2.1 2.1-4.3 3.2-6.4 1.5-3.1 3-6.2 4.6-9.2.3-.6 1.1-1.2 1.6-1.2.6 0 1.1.7 1.7 1.1.1.1.1.3.2.4 2.5 5.1 5 10.2 7.6 15.3.2.4.6.8 1 .8 4.5.7 8.9 1.3 13.4 2 1.8.3 3.6.8 5.5 1.2v2.4c-4.4 4.2-8.7 8.4-13.1 12.7-.2.2-.3.7-.3 1.1.6 3.7 1.3 7.5 1.9 11.2.3 1.9.8 3.8.9 5.8.1.8-.1 1.9-.6 2.3-.4.4-1.5 0-2.3-.1-.1 0-.3-.1-.4-.2-4.8-2.5-9.7-5.1-14.5-7.6-.7-.4-1.3-.4-2 0-4.8 2.6-9.6 5.1-14.4 7.6-.9.5-1.9 1.2-2.9.5-1.1-.7-.7-1.9-.5-3 .9-5.4 1.9-10.9 2.8-16.3.1-.5-.1-1.1-.4-1.4-2.4-2.4-4.8-4.7-7.2-7C4 26.6 2 24.6 0 22.5z"/></svg>