<svg id="twitter" xmlns="http://www.w3.org/2000/svg" viewBox="0 0 36.3 30.1"><path d="M0 26.7c4.1.2 7.5-.7 10.7-3-3.3-.5-5.5-2.2-6.7-5.2.9 0 1.7-.1 2.5-.1-3.3-1.5-5.4-3.7-5.6-7.6 1.1.2 2.1.5 3.1.8C1 8.6.6 5.3 2.2 1.4c4.2 4.7 9.2 7.4 15.4 7.8 0-.6-.1-1.2-.1-1.7.1-3.1 1.6-5.5 4.4-6.7 2.8-1.3 5.6-.9 8.1 1.1.4.3 1 .5 1.5.4 1.3-.3 2.5-.8 4-1.2-.8 1.2-1.7 2.4-2.6 3.7 1.1-.4 2.1-.6 3.2-.9 0 0 .1.1.2.1-.9 1-1.8 2.1-2.8 3-.5.5-.8 1-.8 1.7 0 10.2-7.1 18.9-17.1 20.9-5.2 1.1-10.2.2-14.8-2.4-.1 0-.3-.2-.8-.5z"/></svg>